Coordinates
version=1
nRows=7
nColumns=40
inDegrees=yes

Units are S.I. units (second, meters, Newtons, ...)
Angles are in degrees.

endheader
time	pelvis_tilt	pelvis_list	pelvis_rotation	pelvis_tx	pelvis_ty	pelvis_tz	hip_flexion_r	hip_adduction_r	hip_rotation_r	knee_angle_r	knee_angle_r_beta	ankle_angle_r	subtalar_angle_r	mtp_angle_r	hip_flexion_l	hip_adduction_l	hip_rotation_l	knee_angle_l	knee_angle_l_beta	ankle_angle_l	subtalar_angle_l	mtp_angle_l	lumbar_extension	lumbar_bending	lumbar_rotation	arm_flex_r	arm_add_r	arm_rot_r	elbow_flex_r	pro_sup_r	wrist_flex_r	wrist_dev_r	arm_flex_l	arm_add_l	arm_rot_l	elbow_flex_l	pro_sup_l	wrist_flex_l	wrist_dev_l
     48.71000000	     -2.81151540	     -5.16102778	     -2.17221117	      1.05226461	      0.92539065	      0.47949032	     18.41051678	      1.96100631	    -13.25264345	     20.03327622	     20.03327622	      5.78096282	     -4.01856489	     -4.58812271	      8.86503316	    -11.72556046	     -6.84841525	     42.19167226	     42.19167226	     12.95685839	    -15.86239329	     -5.70398981	    -10.37966616	      7.74273938	      0.85530917	      5.09317926	    -12.29244464	    -10.44237443	     31.27087211	     46.03229191	      0.00000000	      0.00000000	     14.35508908	    -11.95024228	     -6.06247566	     54.55931986	     46.90213786	      0.00000000	      0.00000000
     48.72342857	     -2.74281392	     -5.15406985	     -1.84058724	      1.05255712	      0.92618498	      0.48172166	     17.72926098	      1.98882967	    -13.88678134	     19.70464569	     19.70464569	      6.11215828	     -3.30365888	     -4.94544853	     10.97258270	    -12.07608799	     -5.68369119	     46.18151684	     46.18151684	     11.64771223	    -16.60736922	     -4.23120822	    -10.45463422	      7.74908223	      1.23761729	      6.43030684	    -12.68055684	    -10.15276099	     32.47984372	     45.98176087	      0.00000000	      0.00000000	     14.50593975	    -11.19199545	     -6.20837357	     51.40521332	     46.88547509	      0.00000000	      0.00000000
     48.73685714	     -2.73969940	     -5.15707779	     -1.51655785	      1.05260739	      0.92684402	      0.48385070	     17.09719474	      2.08248602	    -14.32938597	     19.28961604	     19.28961604	      6.37759990	     -2.85494970	     -5.08865420	     13.15250103	    -12.40604234	     -4.62690350	     49.87276068	     49.87276068	     10.19760542	    -17.15996693	     -3.20038621	    -10.52564087	      7.77746728	      1.22358718	      8.20705600	    -12.90207777	    -10.10158832	     33.59632825	     45.94836571	      0.00000000	      0.00000000	     13.75958837	    -10.91487301	     -6.06486613	     50.06209284	     46.85120372	      0.00000000	      0.00000000
     48.75028571	     -2.69398851	     -5.23187960	     -1.15661827	      1.05250327	      0.92744656	      0.48590207	     16.44682309	      2.25383584	    -14.83362674	     18.92041716	     18.92041716	      6.70220367	     -2.54880970	     -5.21703189	     15.25609027	    -12.76339642	     -3.60117503	     53.17238113	     53.17238113	      8.86763860	    -17.57405478	     -2.26234076	    -10.67195991	      7.81600292	      1.45961834	      9.82050214	    -13.25956747	    -10.06233209	     34.49853905	     45.92264115	      0.00000000	      0.00000000	     13.01477173	    -10.51505825	     -5.93282419	     48.93662823	     46.81984134	      0.00000000	      0.00000000
     48.76371429	     -2.71373575	     -5.15705833	     -0.77488765	      1.05201130	      0.92799104	      0.48753861	     15.94355839	      2.16644735	    -15.51151283	     18.64450726	     18.64450726	      6.84865321	     -1.79052038	     -5.65861894	     17.61587607	    -12.72440088	     -2.41156519	     56.48344369	     56.48344369	     10.08386370	    -17.21000452	      4.75587238	    -10.73123474	      7.71815970	      1.91353902	     10.96558431	    -13.98552179	     -9.02762223	     36.77511248	     45.78418499	      0.00000000	      0.00000000	     13.58138689	     -9.73484271	     -6.10135076	     44.81555394	     46.79821365	      0.00000000	      0.00000000
     48.77714286	     -2.76521799	     -5.18347312	     -0.40146282	      1.05141159	      0.92842244	      0.48931301	     15.44075213	      2.29959143	    -15.88561886	     18.26552492	     18.26552492	      7.02284326	     -1.64240205	     -5.65613938	     19.67008254	    -12.94088912	     -1.62796967	     58.67591667	     58.67591667	      9.11263155	    -17.53679253	      5.28861310	    -10.82178669	      7.67486128	      1.99569394	     12.80562198	    -14.29943484	     -9.00936044	     37.90362352	     45.75293100	      0.00000000	      0.00000000	     12.68232394	     -9.49925025	     -5.97863943	     43.85068082	     46.76619496	      0.00000000	      0.00000000
     48.79057143	     -2.80023721	     -5.14911792	     -0.00089822	      1.05062512	      0.92885854	      0.49083669	     14.96613105	      2.32149794	    -16.35553636	     17.96702129	     17.96702129	      7.24807734	     -1.29822140	     -5.77944937	     21.72176035	    -12.99110475	     -0.86460870	     60.49272312	     60.49272312	      9.63093824	    -17.49355218	      8.84835254	    -10.91425153	      7.58513674	      2.26156908	     14.07401968	    -15.00466157	     -7.91236113	     40.33690107	     45.61782039	      0.00000000	      0.00000000	     12.68888323	     -9.02331945	     -6.06809816	     40.80054251	     46.74109413	      0.00000000	      0.00000000
